<?xml version="1.0" encoding="UTF-8" standalone="no"?>
<!-- Created with Inkscape (http://www.inkscape.org/) -->

<svg
   xmlns:dc="http://purl.org/dc/elements/1.1/"
   xmlns:cc="http://creativecommons.org/ns#"
   xmlns:rdf="http://www.w3.org/1999/02/22-rdf-syntax-ns#"
   xmlns:svg="http://www.w3.org/2000/svg"
   xmlns="http://www.w3.org/2000/svg"
   xmlns:sodipodi="http://sodipodi.sourceforge.net/DTD/sodipodi-0.dtd"
   xmlns:inkscape="http://www.inkscape.org/namespaces/inkscape"
   width="210mm"
   height="297mm"
   viewBox="0 0 744.09448819 1052.3622047"
   id="svg2"
   version="1.1"
   inkscape:version="0.91 r13725"
   sodipodi:docname="inkscape_spiral.svg">
  <defs
     id="defs4" />
  <sodipodi:namedview
     id="base"
     pagecolor="#ffffff"
     bordercolor="#666666"
     borderopacity="1.0"
     inkscape:pageopacity="0.0"
     inkscape:pageshadow="2"
     inkscape:zoom="0.35"
     inkscape:cx="-249.28571"
     inkscape:cy="517.14286"
     inkscape:document-units="px"
     inkscape:current-layer="layer1"
     showgrid="false"
     inkscape:window-width="1920"
     inkscape:window-height="1017"
     inkscape:window-x="-8"
     inkscape:window-y="-8"
     inkscape:window-maximized="1" />
  <metadata
     id="metadata7">
    <rdf:RDF>
      <cc:Work
         rdf:about="">
        <dc:format>image/svg+xml</dc:format>
        <dc:type
           rdf:resource="http://purl.org/dc/dcmitype/StillImage" />
        <dc:title></dc:title>
      </cc:Work>
    </rdf:RDF>
  </metadata>
  <g
     inkscape:label="Ebene 1"
     inkscape:groupmode="layer"
     id="layer1">
    <path
       sodipodi:type="spiral"
       style="fill:none;fill-rule:evenodd;stroke:#000000;stroke-width:7.5;stroke-linecap:butt;stroke-linejoin:miter;stroke-miterlimit:4;stroke-dasharray:none;stroke-opacity:1"
       id="path4136"
       sodipodi:cx="365.71429"
       sodipodi:cy="392.36218"
       sodipodi:expansion="1"
       sodipodi:revolution="17.1"
       sodipodi:radius="385.23779"
       sodipodi:argument="-17.842075"
       sodipodi:t0="0"
       d="m 365.71429,392.36218 c 1.80951,2.86506 -2.96928,3.8527 -4.7619,3.00752 -4.85789,-2.29038 -4.20083,-9.0268 -1.25313,-12.53133 5.27275,-6.26878 14.99091,-4.94822 20.30075,0.50126 7.79241,7.99734 5.73778,21.04316 -2.25565,28.07018 -10.65399,9.36591 -27.12764,6.5465 -35.8396,-4.01005 -10.96311,-13.28433 -7.36538,-33.22771 5.76444,-43.60901 15.90197,-12.57315 39.33662,-8.1902 51.37844,7.51882 14.19086,18.51254 9.01873,45.45104 -9.27322,59.14786 -21.11878,15.81352 -51.56914,9.84976 -66.91728,-11.0276 -17.43953,-23.72219 -10.68253,-57.68983 12.78199,-74.68671 26.32365,-19.06793 63.81239,-11.51655 82.45613,14.53638 20.69808,28.9237 12.35152,69.93638 -16.29077,90.22556 -31.5227,22.32956 -76.06144,13.1872 -97.99497,-18.04517 -23.96207,-34.1209 -14.02346,-82.18737 19.79955,-105.76439 36.71849,-25.59539 88.31398,-14.86016 113.53382,21.55394 27.22935,39.31558 15.69722,94.44116 -23.30834,121.30324 -41.91227,28.86386 -100.5688,16.53459 -129.07266,-25.06272 -30.4988,-44.50864 -17.37221,-106.69683 26.81711,-136.84209 47.10473,-32.1341 112.82518,-18.21003 144.61151,28.5715 33.76973,49.7006 19.04804,118.9538 -30.32589,152.38093 -52.29626,35.40561 -125.08266,19.8862 -160.15035,-32.08028 -37.04172,-54.89176 -20.72448,-131.21173 33.83467,-167.91977 57.48713,-38.67803 137.34097,-21.56288 175.68919,35.58906 40.31451,60.08237 22.40138,143.47038 -37.34345,183.45862 -62.6775,41.95113 -149.59991,23.23996 -191.22804,-39.09784 -43.58789,-65.27254 -24.07863,-155.72958 40.85223,-198.99747 67.86749,-45.22476 161.85935,-24.91736 206.76689,42.60662 46.86174,70.46237 25.75615,167.98922 -44.36101,214.53631 -73.05718,48.49882 -174.11917,26.595 -222.30573,-46.1154 -50.13598,-75.65193 -27.4339,-180.24919 47.86979,-230.07515 78.24663,-51.77321 186.3793,-28.27284 237.84457,49.62418 53.41051,80.84129 29.11182,192.50946 -51.37857,245.614 -83.43589,55.04787 -198.63969,29.95083 -253.38342,-53.13296 -56.68528,-86.03047 -30.78988,-204.76997 54.88735,-261.15284 88.625,-58.32276 210.9003,-31.62897 268.92227,56.64173 59.96027,91.2195 32.46807,217.03067 -58.39613,276.69169 -93.81397,61.59783 -223.16108,33.30721 -284.46111,-60.15052 -63.23543,-96.40841 -34.14637,-229.29152 61.90491,-292.23053 99.00283,-64.87306 235.422,-34.98554 299.99995,63.6593 66.51073,101.59722 35.82475,241.55252 -65.41369,307.76938 -104.19159,68.14842 -247.68307,36.66396 -315.5388,-67.16808 -69.78615,-106.78595 -37.50319,-253.81364 68.92247,-323.30822 109.38028,-71.42391 259.94425,-38.34245 331.07765,70.67685 73.06168,111.9746 39.18171,266.07487 -72.43125,338.84707 C 383.47611,676.58554 225.8395,641.90704 151.42852,527.70041 75.091209,410.53723 110.56824,249.36423 227.36855,173.3145 347.126,95.339347 511.83541,131.61492 589.52388,251.00892 669.1369,373.36063 632.06278,541.60649 510.07507,620.93367 385.12912,702.18457 213.34678,664.3119 132.3809,539.73048 49.492099,412.19029 88.163331,236.87145 215.33848,154.26688 345.4729,69.740168 524.32827,109.20997 608.5715,238.97885 694.73614,371.70748 654.46777,554.09941 522.10514,639.9813 386.78231,727.78388 200.8538,686.71693 113.33327,551.76054 23.892737,413.84352 65.758272,224.37841 203.30842,135.21925 343.81963,44.140751 536.82136,86.804875 627.61913,226.94879 720.33561,370.05418 676.87289,566.59255 534.1352,659.02892 388.43564,753.3834 188.36062,709.12208 94.285648,563.79061 -1.7068259,415.49688 43.353093,211.88518 191.27835,116.17163 342.16623,18.541145 549.31463,64.39967 646.66675,214.91872 745.93526,368.40075 699.27812,579.08586 546.16527,678.07655 390.0891,778.98308 175.86726,731.52733 75.238023,575.82067 -27.306549,417.15036 20.947817,199.39179 179.24829,97.124005 340.51273,-7.0586132 561.80805,41.994373 665.71438,202.88866 771.53505,366.74723 721.68344,591.57932 558.19533,697.12417 391.74264,804.58291 163.37378,753.93267 56.190399,587.85074 -52.906403,418.80393 -1.4575379,186.89827 167.21822,78.076381 338.85914,-32.658496 574.3016,19.589001 684.762,190.85859 797.13496,365.09362 744.08883,604.07289 570.2254,716.1718 502.40378,759.89997 421.25072,781.27807 340.68948,776.78632"
       inkscape:export-xdpi="33"
       inkscape:export-ydpi="33" />
  </g>
</svg>
